<?xml version="1.0" encoding="UTF-8" standalone="no"?>
<!DOCTYPE svg PUBLIC "-//W3C//DTD SVG 1.1//EN"
 "http://www.w3.org/Graphics/SVG/1.1/DTD/svg11.dtd">
<!-- Generated by graphviz version 2.40.1 (20161225.0304)
 -->
<!-- Title: dependencies Pages: 1 -->
<svg width="2746pt" height="284pt"
 viewBox="0.00 0.00 2746.00 284.00" xmlns="http://www.w3.org/2000/svg" xmlns:xlink="http://www.w3.org/1999/xlink">
<g id="graph0" class="graph" transform="scale(1 1) rotate(0) translate(4 280)">
<title>dependencies</title>
<polygon fill="#ffffff" stroke="transparent" points="-4,4 -4,-280 2742,-280 2742,4 -4,4"/>
<text text-anchor="start" x="1348.0091" y="-42.4" font-family="sans-serif" font-weight="bold" font-size="14.00" fill="#000000">Legend</text>
<polygon fill="#ffffb3" stroke="transparent" points="1135,-10 1135,-30 1155,-30 1155,-10 1135,-10"/>
<text text-anchor="start" x="1158.629" y="-15.4" font-family="sans-serif" font-size="14.00" fill="#000000"> &#160;Declarations</text>
<polygon fill="#8dd3c7" stroke="transparent" points="1248,-10 1248,-30 1268,-30 1268,-10 1248,-10"/>
<text text-anchor="start" x="1271.7251" y="-15.4" font-family="sans-serif" font-size="14.00" fill="#000000"> &#160;Module</text>
<polygon fill="#80b1d3" stroke="transparent" points="1334,-10 1334,-30 1354,-30 1354,-10 1334,-10"/>
<text text-anchor="start" x="1357.7812" y="-15.4" font-family="sans-serif" font-size="14.00" fill="#000000"> &#160;Bootstrap</text>
<polygon fill="#fdb462" stroke="transparent" points="1431,-10 1431,-30 1451,-30 1451,-10 1431,-10"/>
<text text-anchor="start" x="1454.6732" y="-15.4" font-family="sans-serif" font-size="14.00" fill="#000000"> &#160;Providers</text>
<polygon fill="#fb8072" stroke="transparent" points="1527,-10 1527,-30 1547,-30 1547,-10 1527,-10"/>
<text text-anchor="start" x="1550.7258" y="-15.4" font-family="sans-serif" font-size="14.00" fill="#000000"> &#160;Exports</text>
<g id="clust1" class="cluster">
<title>cluster_PagesModule</title>
<polygon fill="none" stroke="#000000" stroke-dasharray="1,5" points="8,-70 8,-268 2730,-268 2730,-70 8,-70"/>
</g>
<g id="clust2" class="cluster">
<title>cluster_PagesModule_declarations</title>
<polygon fill="none" stroke="#000000" points="138,-78 138,-130 2722,-130 2722,-78 138,-78"/>
</g>
<g id="clust20" class="cluster">
<title>cluster_PagesModule_imports</title>
<polygon fill="none" stroke="#000000" points="16,-78 16,-130 130,-130 130,-78 16,-78"/>
</g>
<g id="clust21" class="cluster">
<title>cluster_PagesModule_exports</title>
<polygon fill="none" stroke="#000000" points="1115,-208 1115,-260 1581,-260 1581,-208 1115,-208"/>
</g>
<!-- BusquedaComponent -->
<g id="node1" class="node">
<title>BusquedaComponent</title>
<polygon fill="#ffffb3" stroke="#000000" points="2714.0436,-122 2577.9564,-122 2577.9564,-86 2714.0436,-86 2714.0436,-122"/>
<text text-anchor="middle" x="2646" y="-99.8" font-family="Times,serif" font-size="14.00" fill="#000000">BusquedaComponent</text>
</g>
<!-- PagesModule -->
<g id="node18" class="node">
<title>PagesModule</title>
<polygon fill="#8dd3c7" stroke="#000000" points="1388.2064,-187 1385.2064,-191 1364.2064,-191 1361.2064,-187 1295.7936,-187 1295.7936,-151 1388.2064,-151 1388.2064,-187"/>
<text text-anchor="middle" x="1342" y="-164.8" font-family="Times,serif" font-size="14.00" fill="#000000">PagesModule</text>
</g>
<!-- BusquedaComponent&#45;&gt;PagesModule -->
<g id="edge1" class="edge">
<title>BusquedaComponent&#45;&gt;PagesModule</title>
<path fill="none" stroke="#000000" d="M2646,-122.0109C2646,-144.4852 2646,-180 2646,-180 2646,-180 1398.4101,-180 1398.4101,-180"/>
<polygon fill="#000000" stroke="#000000" points="1398.4101,-176.5001 1388.4101,-180 1398.41,-183.5001 1398.4101,-176.5001"/>
</g>
<!-- CitasComponent -->
<g id="node2" class="node">
<title>CitasComponent</title>
<polygon fill="#ffffb3" stroke="#000000" points="2560.1095,-122 2449.8905,-122 2449.8905,-86 2560.1095,-86 2560.1095,-122"/>
<text text-anchor="middle" x="2505" y="-99.8" font-family="Times,serif" font-size="14.00" fill="#000000">CitasComponent</text>
</g>
<!-- CitasComponent&#45;&gt;PagesModule -->
<g id="edge2" class="edge">
<title>CitasComponent&#45;&gt;PagesModule</title>
<path fill="none" stroke="#000000" d="M2505,-122.0449C2505,-143.6623 2505,-177 2505,-177 2505,-177 1398.3087,-177 1398.3087,-177"/>
<polygon fill="#000000" stroke="#000000" points="1398.3087,-173.5001 1388.3087,-177 1398.3086,-180.5001 1398.3087,-173.5001"/>
</g>
<!-- CitasDiariasComponent -->
<g id="node3" class="node">
<title>CitasDiariasComponent</title>
<polygon fill="#ffffb3" stroke="#000000" points="2432.0323,-122 2281.9677,-122 2281.9677,-86 2432.0323,-86 2432.0323,-122"/>
<text text-anchor="middle" x="2357" y="-99.8" font-family="Times,serif" font-size="14.00" fill="#000000">CitasDiariasComponent</text>
</g>
<!-- CitasDiariasComponent&#45;&gt;PagesModule -->
<g id="edge3" class="edge">
<title>CitasDiariasComponent&#45;&gt;PagesModule</title>
<path fill="none" stroke="#000000" d="M2357,-122.1289C2357,-142.5724 2357,-173 2357,-173 2357,-173 1398.2499,-173 1398.2499,-173"/>
<polygon fill="#000000" stroke="#000000" points="1398.25,-169.5001 1388.2499,-173 1398.2499,-176.5001 1398.25,-169.5001"/>
</g>
<!-- ConsultaComponent -->
<g id="node4" class="node">
<title>ConsultaComponent</title>
<polygon fill="#ffffb3" stroke="#000000" points="2263.6094,-122 2132.3906,-122 2132.3906,-86 2263.6094,-86 2263.6094,-122"/>
<text text-anchor="middle" x="2198" y="-99.8" font-family="Times,serif" font-size="14.00" fill="#000000">ConsultaComponent</text>
</g>
<!-- ConsultaComponent&#45;&gt;PagesModule -->
<g id="edge4" class="edge">
<title>ConsultaComponent&#45;&gt;PagesModule</title>
<path fill="none" stroke="#000000" d="M2198,-122.1061C2198,-141.3391 2198,-169 2198,-169 2198,-169 1398.3258,-169 1398.3258,-169"/>
<polygon fill="#000000" stroke="#000000" points="1398.3258,-165.5001 1388.3258,-169 1398.3258,-172.5001 1398.3258,-165.5001"/>
</g>
<!-- ConsultasComponent -->
<g id="node5" class="node">
<title>ConsultasComponent</title>
<polygon fill="#ffffb3" stroke="#000000" points="2114.0547,-122 1977.9453,-122 1977.9453,-86 2114.0547,-86 2114.0547,-122"/>
<text text-anchor="middle" x="2046" y="-99.8" font-family="Times,serif" font-size="14.00" fill="#000000">ConsultasComponent</text>
</g>
<!-- ConsultasComponent&#45;&gt;PagesModule -->
<g id="edge5" class="edge">
<title>ConsultasComponent&#45;&gt;PagesModule</title>
<path fill="none" stroke="#000000" d="M2046,-122.2667C2046,-140.5552 2046,-166 2046,-166 2046,-166 1398.1914,-166 1398.1914,-166"/>
<polygon fill="#000000" stroke="#000000" points="1398.1914,-162.5001 1388.1914,-166 1398.1914,-169.5001 1398.1914,-162.5001"/>
</g>
<!-- DashboardComponent -->
<g id="node6" class="node">
<title>DashboardComponent</title>
<polygon fill="#ffffb3" stroke="#000000" points="1959.9734,-122 1818.0266,-122 1818.0266,-86 1959.9734,-86 1959.9734,-122"/>
<text text-anchor="middle" x="1889" y="-99.8" font-family="Times,serif" font-size="14.00" fill="#000000">DashboardComponent</text>
</g>
<!-- DashboardComponent&#45;&gt;PagesModule -->
<g id="edge6" class="edge">
<title>DashboardComponent&#45;&gt;PagesModule</title>
<path fill="none" stroke="#000000" d="M1889,-122.0336C1889,-139.0597 1889,-162 1889,-162 1889,-162 1398.1655,-162 1398.1655,-162"/>
<polygon fill="#000000" stroke="#000000" points="1398.1655,-158.5001 1388.1655,-162 1398.1655,-165.5001 1398.1655,-158.5001"/>
</g>
<!-- EspecialidadComponent -->
<g id="node7" class="node">
<title>EspecialidadComponent</title>
<polygon fill="#ffffb3" stroke="#000000" points="1800.3599,-122 1647.6401,-122 1647.6401,-86 1800.3599,-86 1800.3599,-122"/>
<text text-anchor="middle" x="1724" y="-99.8" font-family="Times,serif" font-size="14.00" fill="#000000">EspecialidadComponent</text>
</g>
<!-- EspecialidadComponent&#45;&gt;PagesModule -->
<g id="edge7" class="edge">
<title>EspecialidadComponent&#45;&gt;PagesModule</title>
<path fill="none" stroke="#000000" d="M1724,-122.0091C1724,-138.0494 1724,-159 1724,-159 1724,-159 1398.4588,-159 1398.4588,-159"/>
<polygon fill="#000000" stroke="#000000" points="1398.4588,-155.5001 1388.4588,-159 1398.4588,-162.5001 1398.4588,-155.5001"/>
</g>
<!-- GraphicsComponent -->
<g id="node8" class="node">
<title>GraphicsComponent</title>
<polygon fill="#ffffb3" stroke="#000000" points="1629.8641,-122 1498.1359,-122 1498.1359,-86 1629.8641,-86 1629.8641,-122"/>
<text text-anchor="middle" x="1564" y="-99.8" font-family="Times,serif" font-size="14.00" fill="#000000">GraphicsComponent</text>
</g>
<!-- GraphicsComponent&#45;&gt;PagesModule -->
<g id="edge8" class="edge">
<title>GraphicsComponent&#45;&gt;PagesModule</title>
<path fill="none" stroke="#000000" d="M1535.4023,-122.1243C1535.4023,-136.7832 1535.4023,-155 1535.4023,-155 1535.4023,-155 1398.3247,-155 1398.3247,-155"/>
<polygon fill="#000000" stroke="#000000" points="1398.3247,-151.5001 1388.3247,-155 1398.3246,-158.5001 1398.3247,-151.5001"/>
</g>
<!-- HistorialComponent -->
<g id="node9" class="node">
<title>HistorialComponent</title>
<polygon fill="#ffffb3" stroke="#000000" points="1480.3216,-122 1349.6784,-122 1349.6784,-86 1480.3216,-86 1480.3216,-122"/>
<text text-anchor="middle" x="1415" y="-99.8" font-family="Times,serif" font-size="14.00" fill="#000000">HistorialComponent</text>
</g>
<!-- HistorialComponent&#45;&gt;PagesModule -->
<g id="edge9" class="edge">
<title>HistorialComponent&#45;&gt;PagesModule</title>
<path fill="none" stroke="#000000" d="M1368.9713,-122.1061C1368.9713,-122.1061 1368.9713,-140.991 1368.9713,-140.991"/>
<polygon fill="#000000" stroke="#000000" points="1365.4713,-140.9909 1368.9713,-150.991 1372.4713,-140.991 1365.4713,-140.9909"/>
</g>
<!-- MedicoComponent -->
<g id="node10" class="node">
<title>MedicoComponent</title>
<polygon fill="#ffffb3" stroke="#000000" points="1332.0968,-122 1207.9032,-122 1207.9032,-86 1332.0968,-86 1332.0968,-122"/>
<text text-anchor="middle" x="1270" y="-99.8" font-family="Times,serif" font-size="14.00" fill="#000000">MedicoComponent</text>
</g>
<!-- MedicoComponent&#45;&gt;PagesModule -->
<g id="edge10" class="edge">
<title>MedicoComponent&#45;&gt;PagesModule</title>
<path fill="none" stroke="#000000" d="M1313.9727,-122.1061C1313.9727,-122.1061 1313.9727,-140.991 1313.9727,-140.991"/>
<polygon fill="#000000" stroke="#000000" points="1310.4727,-140.9909 1313.9727,-150.991 1317.4727,-140.991 1310.4727,-140.9909"/>
</g>
<!-- MedicosComponent -->
<g id="node11" class="node">
<title>MedicosComponent</title>
<polygon fill="#ffffb3" stroke="#000000" points="1189.5422,-122 1060.4578,-122 1060.4578,-86 1189.5422,-86 1189.5422,-122"/>
<text text-anchor="middle" x="1125" y="-99.8" font-family="Times,serif" font-size="14.00" fill="#000000">MedicosComponent</text>
</g>
<!-- MedicosComponent&#45;&gt;PagesModule -->
<g id="edge11" class="edge">
<title>MedicosComponent&#45;&gt;PagesModule</title>
<path fill="none" stroke="#000000" d="M1156.6254,-122.1243C1156.6254,-136.7832 1156.6254,-155 1156.6254,-155 1156.6254,-155 1285.7003,-155 1285.7003,-155"/>
<polygon fill="#000000" stroke="#000000" points="1285.7004,-158.5001 1295.7003,-155 1285.7003,-151.5001 1285.7004,-158.5001"/>
</g>
<!-- ModalUploadComponent -->
<g id="node12" class="node">
<title>ModalUploadComponent</title>
<polygon fill="#ffffb3" stroke="#000000" points="1042.594,-122 883.406,-122 883.406,-86 1042.594,-86 1042.594,-122"/>
<text text-anchor="middle" x="963" y="-99.8" font-family="Times,serif" font-size="14.00" fill="#000000">ModalUploadComponent</text>
</g>
<!-- ModalUploadComponent&#45;&gt;PagesModule -->
<g id="edge12" class="edge">
<title>ModalUploadComponent&#45;&gt;PagesModule</title>
<path fill="none" stroke="#000000" d="M963,-122.0091C963,-138.0494 963,-159 963,-159 963,-159 1285.5272,-159 1285.5272,-159"/>
<polygon fill="#000000" stroke="#000000" points="1285.5272,-162.5001 1295.5272,-159 1285.5271,-155.5001 1285.5272,-162.5001"/>
</g>
<!-- PagesComponent -->
<g id="node13" class="node">
<title>PagesComponent</title>
<polygon fill="#ffffb3" stroke="#000000" points="864.9888,-122 751.0112,-122 751.0112,-86 864.9888,-86 864.9888,-122"/>
<text text-anchor="middle" x="808" y="-99.8" font-family="Times,serif" font-size="14.00" fill="#000000">PagesComponent</text>
</g>
<!-- PagesComponent&#45;&gt;PagesModule -->
<g id="edge13" class="edge">
<title>PagesComponent&#45;&gt;PagesModule</title>
<path fill="none" stroke="#000000" d="M808,-122.0336C808,-139.0597 808,-162 808,-162 808,-162 1285.5452,-162 1285.5452,-162"/>
<polygon fill="#000000" stroke="#000000" points="1285.5452,-165.5001 1295.5452,-162 1285.5451,-158.5001 1285.5452,-165.5001"/>
</g>
<!-- ProfileComponent -->
<g id="node14" class="node">
<title>ProfileComponent</title>
<polygon fill="#ffffb3" stroke="#000000" points="732.9328,-122 613.0672,-122 613.0672,-86 732.9328,-86 732.9328,-122"/>
<text text-anchor="middle" x="673" y="-99.8" font-family="Times,serif" font-size="14.00" fill="#000000">ProfileComponent</text>
</g>
<!-- ProfileComponent&#45;&gt;PagesModule -->
<g id="edge14" class="edge">
<title>ProfileComponent&#45;&gt;PagesModule</title>
<path fill="none" stroke="#000000" d="M673,-122.2667C673,-140.5552 673,-166 673,-166 673,-166 1285.753,-166 1285.753,-166"/>
<polygon fill="#000000" stroke="#000000" points="1285.753,-169.5001 1295.753,-166 1285.7529,-162.5001 1285.753,-169.5001"/>
</g>
<!-- ProgressComponent -->
<g id="node15" class="node">
<title>ProgressComponent</title>
<polygon fill="#ffffb3" stroke="#000000" points="595.5408,-122 466.4592,-122 466.4592,-86 595.5408,-86 595.5408,-122"/>
<text text-anchor="middle" x="531" y="-99.8" font-family="Times,serif" font-size="14.00" fill="#000000">ProgressComponent</text>
</g>
<!-- ProgressComponent&#45;&gt;PagesModule -->
<g id="edge15" class="edge">
<title>ProgressComponent&#45;&gt;PagesModule</title>
<path fill="none" stroke="#000000" d="M531,-122.1061C531,-141.3391 531,-169 531,-169 531,-169 1285.7793,-169 1285.7793,-169"/>
<polygon fill="#000000" stroke="#000000" points="1285.7793,-172.5001 1295.7793,-169 1285.7792,-165.5001 1285.7793,-172.5001"/>
</g>
<!-- SolicitarCitaComponent -->
<g id="node16" class="node">
<title>SolicitarCitaComponent</title>
<polygon fill="#ffffb3" stroke="#000000" points="448.0996,-122 295.9004,-122 295.9004,-86 448.0996,-86 448.0996,-122"/>
<text text-anchor="middle" x="372" y="-99.8" font-family="Times,serif" font-size="14.00" fill="#000000">SolicitarCitaComponent</text>
</g>
<!-- SolicitarCitaComponent&#45;&gt;PagesModule -->
<g id="edge16" class="edge">
<title>SolicitarCitaComponent&#45;&gt;PagesModule</title>
<path fill="none" stroke="#000000" d="M372,-122.1289C372,-142.5724 372,-173 372,-173 372,-173 1285.8674,-173 1285.8674,-173"/>
<polygon fill="#000000" stroke="#000000" points="1285.8675,-176.5001 1295.8674,-173 1285.8674,-169.5001 1285.8675,-176.5001"/>
</g>
<!-- UsuariosComponent -->
<g id="node17" class="node">
<title>UsuariosComponent</title>
<polygon fill="#ffffb3" stroke="#000000" points="277.594,-122 146.406,-122 146.406,-86 277.594,-86 277.594,-122"/>
<text text-anchor="middle" x="212" y="-99.8" font-family="Times,serif" font-size="14.00" fill="#000000">UsuariosComponent</text>
</g>
<!-- UsuariosComponent&#45;&gt;PagesModule -->
<g id="edge17" class="edge">
<title>UsuariosComponent&#45;&gt;PagesModule</title>
<path fill="none" stroke="#000000" d="M212,-122.0449C212,-143.6623 212,-177 212,-177 212,-177 1285.596,-177 1285.596,-177"/>
<polygon fill="#000000" stroke="#000000" points="1285.596,-180.5001 1295.596,-177 1285.5959,-173.5001 1285.596,-180.5001"/>
</g>
<!-- DashboardComponent  -->
<g id="node20" class="node">
<title>DashboardComponent </title>
<polygon fill="#fb8072" stroke="#000000" points="1572.9742,-252 1427.0258,-252 1427.0258,-216 1572.9742,-216 1572.9742,-252"/>
<text text-anchor="middle" x="1500" y="-229.8" font-family="Times,serif" font-size="14.00" fill="#000000">DashboardComponent </text>
</g>
<!-- PagesModule&#45;&gt;DashboardComponent  -->
<g id="edge19" class="edge">
<title>PagesModule&#45;&gt;DashboardComponent </title>
<path fill="none" stroke="#000000" stroke-dasharray="5,2" d="M1388.4054,-184C1419.0981,-184 1453.7119,-184 1453.7119,-184 1453.7119,-184 1453.7119,-205.9489 1453.7119,-205.9489"/>
<polygon fill="#000000" stroke="#000000" points="1450.212,-205.9488 1453.7119,-215.9489 1457.212,-205.9489 1450.212,-205.9488"/>
</g>
<!-- GraphicsComponent  -->
<g id="node21" class="node">
<title>GraphicsComponent </title>
<polygon fill="#fb8072" stroke="#000000" points="1409.8645,-252 1274.1355,-252 1274.1355,-216 1409.8645,-216 1409.8645,-252"/>
<text text-anchor="middle" x="1342" y="-229.8" font-family="Times,serif" font-size="14.00" fill="#000000">GraphicsComponent </text>
</g>
<!-- PagesModule&#45;&gt;GraphicsComponent  -->
<g id="edge20" class="edge">
<title>PagesModule&#45;&gt;GraphicsComponent </title>
<path fill="none" stroke="#000000" stroke-dasharray="5,2" d="M1342,-187.1061C1342,-187.1061 1342,-205.991 1342,-205.991"/>
<polygon fill="#000000" stroke="#000000" points="1338.5001,-205.9909 1342,-215.991 1345.5001,-205.991 1338.5001,-205.9909"/>
</g>
<!-- ProgressComponent  -->
<g id="node22" class="node">
<title>ProgressComponent </title>
<polygon fill="#fb8072" stroke="#000000" points="1256.54,-252 1123.46,-252 1123.46,-216 1256.54,-216 1256.54,-252"/>
<text text-anchor="middle" x="1190" y="-229.8" font-family="Times,serif" font-size="14.00" fill="#000000">ProgressComponent </text>
</g>
<!-- PagesModule&#45;&gt;ProgressComponent  -->
<g id="edge21" class="edge">
<title>PagesModule&#45;&gt;ProgressComponent </title>
<path fill="none" stroke="#000000" stroke-dasharray="5,2" d="M1295.7682,-184C1265.7704,-184 1232.2358,-184 1232.2358,-184 1232.2358,-184 1232.2358,-205.9489 1232.2358,-205.9489"/>
<polygon fill="#000000" stroke="#000000" points="1228.7359,-205.9488 1232.2358,-215.9489 1235.7359,-205.9489 1228.7359,-205.9488"/>
</g>
<!-- SharedModule -->
<g id="node19" class="node">
<title>SharedModule</title>
<polygon fill="#8dd3c7" stroke="#000000" points="122.4231,-122 119.4231,-126 98.4231,-126 95.4231,-122 23.5769,-122 23.5769,-86 122.4231,-86 122.4231,-122"/>
<text text-anchor="middle" x="73" y="-99.8" font-family="Times,serif" font-size="14.00" fill="#000000">SharedModule</text>
</g>
<!-- SharedModule&#45;&gt;PagesModule -->
<g id="edge18" class="edge">
<title>SharedModule&#45;&gt;PagesModule</title>
<path fill="none" stroke="#000000" d="M73,-122.0109C73,-144.4852 73,-180 73,-180 73,-180 1285.709,-180 1285.709,-180"/>
<polygon fill="#000000" stroke="#000000" points="1285.709,-183.5001 1295.709,-180 1285.7089,-176.5001 1285.709,-183.5001"/>
</g>
</g>
</svg>
